<svg class="rich-terminal" viewBox="0 0 994 635.5999999999999" xmlns="http://www.w3.org/2000/svg">
    <!-- Generated with Rich https://www.textualize.io -->
    <style>

    @font-face {
        font-family: "Fira Code";
        src: local("FiraCode-Regular"),
                url("https://cdnjs.cloudflare.com/ajax/libs/firacode/6.2.0/woff2/FiraCode-Regular.woff2") format("woff2"),
                url("https://cdnjs.cloudflare.com/ajax/libs/firacode/6.2.0/woff/FiraCode-Regular.woff") format("woff");
        font-style: normal;
        font-weight: 400;
    }
    @font-face {
        font-family: "Fira Code";
        src: local("FiraCode-Bold"),
                url("https://cdnjs.cloudflare.com/ajax/libs/firacode/6.2.0/woff2/FiraCode-Bold.woff2") format("woff2"),
                url("https://cdnjs.cloudflare.com/ajax/libs/firacode/6.2.0/woff/FiraCode-Bold.woff") format("woff");
        font-style: bold;
        font-weight: 700;
    }

    .terminal-2467946649-matrix {
        font-family: Fira Code, monospace;
        font-size: 20px;
        line-height: 24.4px;
        font-variant-east-asian: full-width;
    }

    .terminal-2467946649-title {
        font-size: 18px;
        font-weight: bold;
        font-family: arial;
    }

    .terminal-2467946649-r1 { fill: #333333 }
.terminal-2467946649-r2 { fill: #707070 }
.terminal-2467946649-r3 { fill: #515151 }
.terminal-2467946649-r4 { fill: #c5c8c6 }
.terminal-2467946649-r5 { fill: #e0e0e0 }
.terminal-2467946649-r6 { fill: #646464;font-weight: bold }
.terminal-2467946649-r7 { fill: #1a1a1a;font-weight: bold }
.terminal-2467946649-r8 { fill: #646464 }
.terminal-2467946649-r9 { fill: #656565 }
.terminal-2467946649-r10 { fill: #b0b0b0 }
.terminal-2467946649-r11 { fill: #272727;font-weight: bold }
.terminal-2467946649-r12 { fill: #686868;font-weight: bold }
    </style>

    <defs>
    <clipPath id="terminal-2467946649-clip-terminal">
      <rect x="0" y="0" width="975.0" height="584.5999999999999" />
    </clipPath>
    <clipPath id="terminal-2467946649-line-0">
    <rect x="0" y="1.5" width="976" height="24.65"/>
            </clipPath>
<clipPath id="terminal-2467946649-line-1">
    <rect x="0" y="25.9" width="976" height="24.65"/>
            </clipPath>
<clipPath id="terminal-2467946649-line-2">
    <rect x="0" y="50.3" width="976" height="24.65"/>
            </clipPath>
<clipPath id="terminal-2467946649-line-3">
    <rect x="0" y="74.7" width="976" height="24.65"/>
            </clipPath>
<clipPath id="terminal-2467946649-line-4">
    <rect x="0" y="99.1" width="976" height="24.65"/>
            </clipPath>
<clipPath id="terminal-2467946649-line-5">
    <rect x="0" y="123.5" width="976" height="24.65"/>
            </clipPath>
<clipPath id="terminal-2467946649-line-6">
    <rect x="0" y="147.9" width="976" height="24.65"/>
            </clipPath>
<clipPath id="terminal-2467946649-line-7">
    <rect x="0" y="172.3" width="976" height="24.65"/>
            </clipPath>
<clipPath id="terminal-2467946649-line-8">
    <rect x="0" y="196.7" width="976" height="24.65"/>
            </clipPath>
<clipPath id="terminal-2467946649-line-9">
    <rect x="0" y="221.1" width="976" height="24.65"/>
            </clipPath>
<clipPath id="terminal-2467946649-line-10">
    <rect x="0" y="245.5" width="976" height="24.65"/>
            </clipPath>
<clipPath id="terminal-2467946649-line-11">
    <rect x="0" y="269.9" width="976" height="24.65"/>
            </clipPath>
<clipPath id="terminal-2467946649-line-12">
    <rect x="0" y="294.3" width="976" height="24.65"/>
            </clipPath>
<clipPath id="terminal-2467946649-line-13">
    <rect x="0" y="318.7" width="976" height="24.65"/>
            </clipPath>
<clipPath id="terminal-2467946649-line-14">
    <rect x="0" y="343.1" width="976" height="24.65"/>
            </clipPath>
<clipPath id="terminal-2467946649-line-15">
    <rect x="0" y="367.5" width="976" height="24.65"/>
            </clipPath>
<clipPath id="terminal-2467946649-line-16">
    <rect x="0" y="391.9" width="976" height="24.65"/>
            </clipPath>
<clipPath id="terminal-2467946649-line-17">
    <rect x="0" y="416.3" width="976" height="24.65"/>
            </clipPath>
<clipPath id="terminal-2467946649-line-18">
    <rect x="0" y="440.7" width="976" height="24.65"/>
            </clipPath>
<clipPath id="terminal-2467946649-line-19">
    <rect x="0" y="465.1" width="976" height="24.65"/>
            </clipPath>
<clipPath id="terminal-2467946649-line-20">
    <rect x="0" y="489.5" width="976" height="24.65"/>
            </clipPath>
<clipPath id="terminal-2467946649-line-21">
    <rect x="0" y="513.9" width="976" height="24.65"/>
            </clipPath>
<clipPath id="terminal-2467946649-line-22">
    <rect x="0" y="538.3" width="976" height="24.65"/>
            </clipPath>
    </defs>

    <rect fill="#292929" stroke="rgba(255,255,255,0.35)" stroke-width="1" x="1" y="1" width="992" height="633.6" rx="8"/><text class="terminal-2467946649-title" fill="#c5c8c6" text-anchor="middle" x="496" y="27">TextUI&#160;showcase</text>
            <g transform="translate(26,22)">
            <circle cx="0" cy="0" r="7" fill="#ff5f57"/>
            <circle cx="22" cy="0" r="7" fill="#febc2e"/>
            <circle cx="44" cy="0" r="7" fill="#28c840"/>
            </g>
        
    <g transform="translate(9, 41)" clip-path="url(#terminal-2467946649-clip-terminal)">
    <rect fill="#161616" x="0" y="1.5" width="97.6" height="24.65" shape-rendering="crispEdges"/><rect fill="#363636" x="97.6" y="1.5" width="12.2" height="24.65" shape-rendering="crispEdges"/><rect fill="#383838" x="109.8" y="1.5" width="12.2" height="24.65" shape-rendering="crispEdges"/><rect fill="#3a3a3a" x="122" y="1.5" width="12.2" height="24.65" shape-rendering="crispEdges"/><rect fill="#3c3c3c" x="134.2" y="1.5" width="12.2" height="24.65" shape-rendering="crispEdges"/><rect fill="#3e3e3e" x="146.4" y="1.5" width="12.2" height="24.65" shape-rendering="crispEdges"/><rect fill="#404040" x="158.6" y="1.5" width="12.2" height="24.65" shape-rendering="crispEdges"/><rect fill="#3f3f3f" x="170.8" y="1.5" width="12.2" height="24.65" shape-rendering="crispEdges"/><rect fill="#3d3d3d" x="183" y="1.5" width="12.2" height="24.65" shape-rendering="crispEdges"/><rect fill="#3a3a3a" x="195.2" y="1.5" width="12.2" height="24.65" shape-rendering="crispEdges"/><rect fill="#383838" x="207.4" y="1.5" width="12.2" height="24.65" shape-rendering="crispEdges"/><rect fill="#353535" x="219.6" y="1.5" width="12.2" height="24.65" shape-rendering="crispEdges"/><rect fill="#323232" x="231.8" y="1.5" width="12.2" height="24.65" shape-rendering="crispEdges"/><rect fill="#303030" x="244" y="1.5" width="12.2" height="24.65" shape-rendering="crispEdges"/><rect fill="#2d2d2d" x="256.2" y="1.5" width="12.2" height="24.65" shape-rendering="crispEdges"/><rect fill="#2a2a2a" x="268.4" y="1.5" width="12.2" height="24.65" shape-rendering="crispEdges"/><rect fill="#282828" x="280.6" y="1.5" width="12.2" height="24.65" shape-rendering="crispEdges"/><rect fill="#252525" x="292.8" y="1.5" width="12.2" height="24.65" shape-rendering="crispEdges"/><rect fill="#232323" x="305" y="1.5" width="12.2" height="24.65" shape-rendering="crispEdges"/><rect fill="#202020" x="317.2" y="1.5" width="12.2" height="24.65" shape-rendering="crispEdges"/><rect fill="#1e1e1e" x="329.4" y="1.5" width="12.2" height="24.65" shape-rendering="crispEdges"/><rect fill="#262626" x="341.6" y="1.5" width="12.2" height="24.65" shape-rendering="crispEdges"/><rect fill="#282828" x="353.8" y="1.5" width="12.2" height="24.65" shape-rendering="crispEdges"/><rect fill="#2b2b2b" x="366" y="1.5" width="12.2" height="24.65" shape-rendering="crispEdges"/><rect fill="#2d2d2d" x="378.2" y="1.5" width="12.2" height="24.65" shape-rendering="crispEdges"/><rect fill="#303030" x="390.4" y="1.5" width="12.2" height="24.65" shape-rendering="crispEdges"/><rect fill="#323232" x="402.6" y="1.5" width="12.2" height="24.65" shape-rendering="crispEdges"/><rect fill="#353535" x="414.8" y="1.5" width="12.2" height="24.65" shape-rendering="crispEdges"/><rect fill="#373737" x="427" y="1.5" width="12.2" height="24.65" shape-rendering="crispEdges"/><rect fill="#3a3a3a" x="439.2" y="1.5" width="12.2" height="24.65" shape-rendering="crispEdges"/><rect fill="#3c3c3c" x="451.4" y="1.5" width="12.2" height="24.65" shape-rendering="crispEdges"/><rect fill="#3e3e3e" x="463.6" y="1.5" width="12.2" height="24.65" shape-rendering="crispEdges"/><rect fill="#404040" x="475.8" y="1.5" width="12.2" height="24.65" shape-rendering="crispEdges"/><rect fill="#3e3e3e" x="488" y="1.5" width="12.2" height="24.65" shape-rendering="crispEdges"/><rect fill="#3a3a3a" x="500.2" y="1.5" width="12.2" height="24.65" shape-rendering="crispEdges"/><rect fill="#373737" x="512.4" y="1.5" width="12.2" height="24.65" shape-rendering="crispEdges"/><rect fill="#343434" x="524.6" y="1.5" width="12.2" height="24.65" shape-rendering="crispEdges"/><rect fill="#313131" x="536.8" y="1.5" width="12.2" height="24.65" shape-rendering="crispEdges"/><rect fill="#2e2e2e" x="549" y="1.5" width="12.2" height="24.65" shape-rendering="crispEdges"/><rect fill="#2a2a2a" x="561.2" y="1.5" width="12.2" height="24.65" shape-rendering="crispEdges"/><rect fill="#272727" x="573.4" y="1.5" width="12.2" height="24.65" shape-rendering="crispEdges"/><rect fill="#242424" x="585.6" y="1.5" width="12.2" height="24.65" shape-rendering="crispEdges"/><rect fill="#212121" x="597.8" y="1.5" width="12.2" height="24.65" shape-rendering="crispEdges"/><rect fill="#1e1e1e" x="610" y="1.5" width="12.2" height="24.65" shape-rendering="crispEdges"/><rect fill="#262626" x="622.2" y="1.5" width="12.2" height="24.65" shape-rendering="crispEdges"/><rect fill="#282828" x="634.4" y="1.5" width="12.2" height="24.65" shape-rendering="crispEdges"/><rect fill="#292929" x="646.6" y="1.5" width="12.2" height="24.65" shape-rendering="crispEdges"/><rect fill="#2c2c2c" x="658.8" y="1.5" width="12.2" height="24.65" shape-rendering="crispEdges"/><rect fill="#2e2e2e" x="671" y="1.5" width="12.2" height="24.65" shape-rendering="crispEdges"/><rect fill="#2f2f2f" x="683.2" y="1.5" width="12.2" height="24.65" shape-rendering="crispEdges"/><rect fill="#313131" x="695.4" y="1.5" width="12.2" height="24.65" shape-rendering="crispEdges"/><rect fill="#333333" x="707.6" y="1.5" width="12.2" height="24.65" shape-rendering="crispEdges"/><rect fill="#161616" x="719.8" y="1.5" width="158.6" height="24.65" shape-rendering="crispEdges"/><rect fill="#1a1a1a" x="878.4" y="1.5" width="97.6" height="24.65" shape-rendering="crispEdges"/><rect fill="#161616" x="0" y="25.9" width="12.2" height="24.65" shape-rendering="crispEdges"/><rect fill="#161616" x="12.2" y="25.9" width="12.2" height="24.65" shape-rendering="crispEdges"/><rect fill="#161616" x="24.4" y="25.9" width="48.8" height="24.65" shape-rendering="crispEdges"/><rect fill="#161616" x="73.2" y="25.9" width="12.2" height="24.65" shape-rendering="crispEdges"/><rect fill="#161616" x="85.4" y="25.9" width="12.2" height="24.65" shape-rendering="crispEdges"/><rect fill="#363636" x="97.6" y="25.9" width="12.2" height="24.65" shape-rendering="crispEdges"/><rect fill="#383838" x="109.8" y="25.9" width="12.2" height="24.65" shape-rendering="crispEdges"/><rect fill="#3a3a3a" x="122" y="25.9" width="12.2" height="24.65" shape-rendering="crispEdges"/><rect fill="#3c3c3c" x="134.2" y="25.9" width="12.2" height="24.65" shape-rendering="crispEdges"/><rect fill="#3e3e3e" x="146.4" y="25.9" width="12.2" height="24.65" shape-rendering="crispEdges"/><rect fill="#404040" x="158.6" y="25.9" width="12.2" height="24.65" shape-rendering="crispEdges"/><rect fill="#3f3f3f" x="170.8" y="25.9" width="12.2" height="24.65" shape-rendering="crispEdges"/><rect fill="#3d3d3d" x="183" y="25.9" width="12.2" height="24.65" shape-rendering="crispEdges"/><rect fill="#3a3a3a" x="195.2" y="25.9" width="12.2" height="24.65" shape-rendering="crispEdges"/><rect fill="#383838" x="207.4" y="25.9" width="12.2" height="24.65" shape-rendering="crispEdges"/><rect fill="#353535" x="219.6" y="25.9" width="12.2" height="24.65" shape-rendering="crispEdges"/><rect fill="#323232" x="231.8" y="25.9" width="12.2" height="24.65" shape-rendering="crispEdges"/><rect fill="#303030" x="244" y="25.9" width="12.2" height="24.65" shape-rendering="crispEdges"/><rect fill="#2d2d2d" x="256.2" y="25.9" width="12.2" height="24.65" shape-rendering="crispEdges"/><rect fill="#2a2a2a" x="268.4" y="25.9" width="12.2" height="24.65" shape-rendering="crispEdges"/><rect fill="#282828" x="280.6" y="25.9" width="12.2" height="24.65" shape-rendering="crispEdges"/><rect fill="#252525" x="292.8" y="25.9" width="12.2" height="24.65" shape-rendering="crispEdges"/><rect fill="#232323" x="305" y="25.9" width="12.2" height="24.65" shape-rendering="crispEdges"/><rect fill="#202020" x="317.2" y="25.9" width="12.2" height="24.65" shape-rendering="crispEdges"/><rect fill="#1e1e1e" x="329.4" y="25.9" width="12.2" height="24.65" shape-rendering="crispEdges"/><rect fill="#393939" x="341.6" y="25.9" width="12.2" height="24.65" shape-rendering="crispEdges"/><rect fill="#3a3a3a" x="353.8" y="25.9" width="24.4" height="24.65" shape-rendering="crispEdges"/><rect fill="#3b3b3b" x="378.2" y="25.9" width="12.2" height="24.65" shape-rendering="crispEdges"/><rect fill="#3c3c3c" x="390.4" y="25.9" width="24.4" height="24.65" shape-rendering="crispEdges"/><rect fill="#3d3d3d" x="414.8" y="25.9" width="12.2" height="24.65" shape-rendering="crispEdges"/><rect fill="#3e3e3e" x="427" y="25.9" width="24.4" height="24.65" shape-rendering="crispEdges"/><rect fill="#3f3f3f" x="451.4" y="25.9" width="12.2" height="24.65" shape-rendering="crispEdges"/><rect fill="#404040" x="463.6" y="25.9" width="36.6" height="24.65" shape-rendering="crispEdges"/><rect fill="#3f3f3f" x="500.2" y="25.9" width="12.2" height="24.65" shape-rendering="crispEdges"/><rect fill="#3e3e3e" x="512.4" y="25.9" width="24.4" height="24.65" shape-rendering="crispEdges"/><rect fill="#3c3c3c" x="536.8" y="25.9" width="24.4" height="24.65" shape-rendering="crispEdges"/><rect fill="#3b3b3b" x="561.2" y="25.9" width="12.2" height="24.65" shape-rendering="crispEdges"/><rect fill="#3a3a3a" x="573.4" y="25.9" width="12.2" height="24.65" shape-rendering="crispEdges"/><rect fill="#393939" x="585.6" y="25.9" width="12.2" height="24.65" shape-rendering="crispEdges"/><rect fill="#383838" x="597.8" y="25.9" width="12.2" height="24.65" shape-rendering="crispEdges"/><rect fill="#373737" x="610" y="25.9" width="12.2" height="24.65" shape-rendering="crispEdges"/><rect fill="#262626" x="622.2" y="25.9" width="12.2" height="24.65" shape-rendering="crispEdges"/><rect fill="#282828" x="634.4" y="25.9" width="12.2" height="24.65" shape-rendering="crispEdges"/><rect fill="#292929" x="646.6" y="25.9" width="12.2" height="24.65" shape-rendering="crispEdges"/><rect fill="#2c2c2c" x="658.8" y="25.9" width="12.2" height="24.65" shape-rendering="crispEdges"/><rect fill="#2e2e2e" x="671" y="25.9" width="12.2" height="24.65" shape-rendering="crispEdges"/><rect fill="#2f2f2f" x="683.2" y="25.9" width="12.2" height="24.65" shape-rendering="crispEdges"/><rect fill="#313131" x="695.4" y="25.9" width="12.2" height="24.65" shape-rendering="crispEdges"/><rect fill="#333333" x="707.6" y="25.9" width="12.2" height="24.65" shape-rendering="crispEdges"/><rect fill="#161616" x="719.8" y="25.9" width="12.2" height="24.65" shape-rendering="crispEdges"/><rect fill="#161616" x="732" y="25.9" width="12.2" height="24.65" shape-rendering="crispEdges"/><rect fill="#161616" x="744.2" y="25.9" width="109.8" height="24.65" shape-rendering="crispEdges"/><rect fill="#161616" x="854" y="25.9" width="12.2" height="24.65" shape-rendering="crispEdges"/><rect fill="#161616" x="866.2" y="25.9" width="12.2" height="24.65" shape-rendering="crispEdges"/><rect fill="#1a1a1a" x="878.4" y="25.9" width="12.2" height="24.65" shape-rendering="crispEdges"/><rect fill="#1a1a1a" x="890.6" y="25.9" width="12.2" height="24.65" shape-rendering="crispEdges"/><rect fill="#646464" x="902.8" y="25.9" width="73.2" height="24.65" shape-rendering="crispEdges"/><rect fill="#161616" x="0" y="50.3" width="97.6" height="24.65" shape-rendering="crispEdges"/><rect fill="#363636" x="97.6" y="50.3" width="12.2" height="24.65" shape-rendering="crispEdges"/><rect fill="#383838" x="109.8" y="50.3" width="12.2" height="24.65" shape-rendering="crispEdges"/><rect fill="#3a3a3a" x="122" y="50.3" width="12.2" height="24.65" shape-rendering="crispEdges"/><rect fill="#3c3c3c" x="134.2" y="50.3" width="12.2" height="24.65" shape-rendering="crispEdges"/><rect fill="#3e3e3e" x="146.4" y="50.3" width="12.2" height="24.65" shape-rendering="crispEdges"/><rect fill="#404040" x="158.6" y="50.3" width="12.2" height="24.65" shape-rendering="crispEdges"/><rect fill="#3f3f3f" x="170.8" y="50.3" width="12.2" height="24.65" shape-rendering="crispEdges"/><rect fill="#3d3d3d" x="183" y="50.3" width="12.2" height="24.65" shape-rendering="crispEdges"/><rect fill="#3a3a3a" x="195.2" y="50.3" width="12.2" height="24.65" shape-rendering="crispEdges"/><rect fill="#383838" x="207.4" y="50.3" width="12.2" height="24.65" shape-rendering="crispEdges"/><rect fill="#353535" x="219.6" y="50.3" width="12.2" height="24.65" shape-rendering="crispEdges"/><rect fill="#323232" x="231.8" y="50.3" width="12.2" height="24.65" shape-rendering="crispEdges"/><rect fill="#303030" x="244" y="50.3" width="12.2" height="24.65" shape-rendering="crispEdges"/><rect fill="#2d2d2d" x="256.2" y="50.3" width="12.2" height="24.65" shape-rendering="crispEdges"/><rect fill="#2a2a2a" x="268.4" y="50.3" width="12.2" height="24.65" shape-rendering="crispEdges"/><rect fill="#282828" x="280.6" y="50.3" width="12.2" height="24.65" shape-rendering="crispEdges"/><rect fill="#252525" x="292.8" y="50.3" width="12.2" height="24.65" shape-rendering="crispEdges"/><rect fill="#232323" x="305" y="50.3" width="12.2" height="24.65" shape-rendering="crispEdges"/><rect fill="#202020" x="317.2" y="50.3" width="12.2" height="24.65" shape-rendering="crispEdges"/><rect fill="#1e1e1e" x="329.4" y="50.3" width="12.2" height="24.65" shape-rendering="crispEdges"/><rect fill="#393939" x="341.6" y="50.3" width="12.2" height="24.65" shape-rendering="crispEdges"/><rect fill="#3a3a3a" x="353.8" y="50.3" width="24.4" height="24.65" shape-rendering="crispEdges"/><rect fill="#3b3b3b" x="378.2" y="50.3" width="12.2" height="24.65" shape-rendering="crispEdges"/><rect fill="#3c3c3c" x="390.4" y="50.3" width="24.4" height="24.65" shape-rendering="crispEdges"/><rect fill="#3d3d3d" x="414.8" y="50.3" width="12.2" height="24.65" shape-rendering="crispEdges"/><rect fill="#3e3e3e" x="427" y="50.3" width="24.4" height="24.65" shape-rendering="crispEdges"/><rect fill="#3f3f3f" x="451.4" y="50.3" width="12.2" height="24.65" shape-rendering="crispEdges"/><rect fill="#404040" x="463.6" y="50.3" width="36.6" height="24.65" shape-rendering="crispEdges"/><rect fill="#3f3f3f" x="500.2" y="50.3" width="12.2" height="24.65" shape-rendering="crispEdges"/><rect fill="#3e3e3e" x="512.4" y="50.3" width="24.4" height="24.65" shape-rendering="crispEdges"/><rect fill="#3c3c3c" x="536.8" y="50.3" width="24.4" height="24.65" shape-rendering="crispEdges"/><rect fill="#3b3b3b" x="561.2" y="50.3" width="12.2" height="24.65" shape-rendering="crispEdges"/><rect fill="#3a3a3a" x="573.4" y="50.3" width="12.2" height="24.65" shape-rendering="crispEdges"/><rect fill="#393939" x="585.6" y="50.3" width="12.2" height="24.65" shape-rendering="crispEdges"/><rect fill="#383838" x="597.8" y="50.3" width="12.2" height="24.65" shape-rendering="crispEdges"/><rect fill="#373737" x="610" y="50.3" width="12.2" height="24.65" shape-rendering="crispEdges"/><rect fill="#262626" x="622.2" y="50.3" width="12.2" height="24.65" shape-rendering="crispEdges"/><rect fill="#282828" x="634.4" y="50.3" width="12.2" height="24.65" shape-rendering="crispEdges"/><rect fill="#292929" x="646.6" y="50.3" width="12.2" height="24.65" shape-rendering="crispEdges"/><rect fill="#2c2c2c" x="658.8" y="50.3" width="12.2" height="24.65" shape-rendering="crispEdges"/><rect fill="#2e2e2e" x="671" y="50.3" width="12.2" height="24.65" shape-rendering="crispEdges"/><rect fill="#2f2f2f" x="683.2" y="50.3" width="12.2" height="24.65" shape-rendering="crispEdges"/><rect fill="#313131" x="695.4" y="50.3" width="12.2" height="24.65" shape-rendering="crispEdges"/><rect fill="#333333" x="707.6" y="50.3" width="12.2" height="24.65" shape-rendering="crispEdges"/><rect fill="#161616" x="719.8" y="50.3" width="158.6" height="24.65" shape-rendering="crispEdges"/><rect fill="#1a1a1a" x="878.4" y="50.3" width="97.6" height="24.65" shape-rendering="crispEdges"/><rect fill="#161616" x="0" y="74.7" width="268.4" height="24.65" shape-rendering="crispEdges"/><rect fill="#121212" x="268.4" y="74.7" width="12.2" height="24.65" shape-rendering="crispEdges"/><rect fill="#1f1f1f" x="280.6" y="74.7" width="61" height="24.65" shape-rendering="crispEdges"/><rect fill="#1f1f1f" x="341.6" y="74.7" width="634.4" height="24.65" shape-rendering="crispEdges"/><rect fill="#161616" x="0" y="99.1" width="12.2" height="24.65" shape-rendering="crispEdges"/><rect fill="#161616" x="12.2" y="99.1" width="61" height="24.65" shape-rendering="crispEdges"/><rect fill="#161616" x="73.2" y="99.1" width="122" height="24.65" shape-rendering="crispEdges"/><rect fill="#161616" x="195.2" y="99.1" width="61" height="24.65" shape-rendering="crispEdges"/><rect fill="#161616" x="256.2" y="99.1" width="12.2" height="24.65" shape-rendering="crispEdges"/><rect fill="#121212" x="268.4" y="99.1" width="12.2" height="24.65" shape-rendering="crispEdges"/><rect fill="#161616" x="280.6" y="99.1" width="61" height="24.65" shape-rendering="crispEdges"/><rect fill="#161616" x="341.6" y="99.1" width="634.4" height="24.65" shape-rendering="crispEdges"/><rect fill="#161616" x="0" y="123.5" width="268.4" height="24.65" shape-rendering="crispEdges"/><rect fill="#121212" x="268.4" y="123.5" width="12.2" height="24.65" shape-rendering="crispEdges"/><rect fill="#161616" x="280.6" y="123.5" width="695.4" height="24.65" shape-rendering="crispEdges"/><rect fill="#161616" x="0" y="147.9" width="268.4" height="24.65" shape-rendering="crispEdges"/><rect fill="#121212" x="268.4" y="147.9" width="12.2" height="24.65" shape-rendering="crispEdges"/><rect fill="#161616" x="280.6" y="147.9" width="695.4" height="24.65" shape-rendering="crispEdges"/><rect fill="#161616" x="0" y="172.3" width="12.2" height="24.65" shape-rendering="crispEdges"/><rect fill="#161616" x="12.2" y="172.3" width="61" height="24.65" shape-rendering="crispEdges"/><rect fill="#161616" x="73.2" y="172.3" width="122" height="24.65" shape-rendering="crispEdges"/><rect fill="#161616" x="195.2" y="172.3" width="61" height="24.65" shape-rendering="crispEdges"/><rect fill="#161616" x="256.2" y="172.3" width="12.2" height="24.65" shape-rendering="crispEdges"/><rect fill="#121212" x="268.4" y="172.3" width="195.2" height="24.65" shape-rendering="crispEdges"/><rect fill="#121212" x="463.6" y="172.3" width="512.4" height="24.65" shape-rendering="crispEdges"/><rect fill="#161616" x="0" y="196.7" width="170.8" height="24.65" shape-rendering="crispEdges"/><rect fill="#1e1e1e" x="170.8" y="196.7" width="634.4" height="24.65" shape-rendering="crispEdges"/><rect fill="#121212" x="805.2" y="196.7" width="170.8" height="24.65" shape-rendering="crispEdges"/><rect fill="#161616" x="0" y="221.1" width="170.8" height="24.65" shape-rendering="crispEdges"/><rect fill="#1e1e1e" x="170.8" y="221.1" width="12.2" height="24.65" shape-rendering="crispEdges"/><rect fill="#1e1e1e" x="183" y="221.1" width="610" height="24.65" shape-rendering="crispEdges"/><rect fill="#1e1e1e" x="793" y="221.1" width="12.2" height="24.65" shape-rendering="crispEdges"/><rect fill="#121212" x="805.2" y="221.1" width="170.8" height="24.65" shape-rendering="crispEdges"/><rect fill="#161616" x="0" y="245.5" width="12.2" height="24.65" shape-rendering="crispEdges"/><rect fill="#161616" x="12.2" y="245.5" width="85.4" height="24.65" shape-rendering="crispEdges"/><rect fill="#161616" x="97.6" y="245.5" width="73.2" height="24.65" shape-rendering="crispEdges"/><rect fill="#1e1e1e" x="170.8" y="245.5" width="12.2" height="24.65" shape-rendering="crispEdges"/><rect fill="#1e1e1e" x="183" y="245.5" width="24.4" height="24.65" shape-rendering="crispEdges"/><rect fill="#1e1e1e" x="207.4" y="245.5" width="561.2" height="24.65" shape-rendering="crispEdges"/><rect fill="#1e1e1e" x="768.6" y="245.5" width="24.4" height="24.65" shape-rendering="crispEdges"/><rect fill="#1e1e1e" x="793" y="245.5" width="12.2" height="24.65" shape-rendering="crispEdges"/><rect fill="#121212" x="805.2" y="245.5" width="170.8" height="24.65" shape-rendering="crispEdges"/><rect fill="#161616" x="0" y="269.9" width="170.8" height="24.65" shape-rendering="crispEdges"/><rect fill="#1e1e1e" x="170.8" y="269.9" width="12.2" height="24.65" shape-rendering="crispEdges"/><rect fill="#1e1e1e" x="183" y="269.9" width="24.4" height="24.65" shape-rendering="crispEdges"/><rect fill="#272727" x="207.4" y="269.9" width="561.2" height="24.65" shape-rendering="crispEdges"/><rect fill="#1e1e1e" x="768.6" y="269.9" width="24.4" height="24.65" shape-rendering="crispEdges"/><rect fill="#1e1e1e" x="793" y="269.9" width="12.2" height="24.65" shape-rendering="crispEdges"/><rect fill="#121212" x="805.2" y="269.9" width="170.8" height="24.65" shape-rendering="crispEdges"/><rect fill="#161616" x="0" y="294.3" width="170.8" height="24.65" shape-rendering="crispEdges"/><rect fill="#1e1e1e" x="170.8" y="294.3" width="12.2" height="24.65" shape-rendering="crispEdges"/><rect fill="#1e1e1e" x="183" y="294.3" width="24.4" height="24.65" shape-rendering="crispEdges"/><rect fill="#272727" x="207.4" y="294.3" width="12.2" height="24.65" shape-rendering="crispEdges"/><rect fill="#272727" x="219.6" y="294.3" width="219.6" height="24.65" shape-rendering="crispEdges"/><rect fill="#e0e0e0" x="439.2" y="294.3" width="85.4" height="24.65" shape-rendering="crispEdges"/><rect fill="#272727" x="524.6" y="294.3" width="231.8" height="24.65" shape-rendering="crispEdges"/><rect fill="#272727" x="756.4" y="294.3" width="12.2" height="24.65" shape-rendering="crispEdges"/><rect fill="#1e1e1e" x="768.6" y="294.3" width="24.4" height="24.65" shape-rendering="crispEdges"/><rect fill="#1e1e1e" x="793" y="294.3" width="12.2" height="24.65" shape-rendering="crispEdges"/><rect fill="#121212" x="805.2" y="294.3" width="170.8" height="24.65" shape-rendering="crispEdges"/><rect fill="#161616" x="0" y="318.7" width="12.2" height="24.65" shape-rendering="crispEdges"/><rect fill="#161616" x="12.2" y="318.7" width="61" height="24.65" shape-rendering="crispEdges"/><rect fill="#161616" x="73.2" y="318.7" width="97.6" height="24.65" shape-rendering="crispEdges"/><rect fill="#1e1e1e" x="170.8" y="318.7" width="12.2" height="24.65" shape-rendering="crispEdges"/><rect fill="#1e1e1e" x="183" y="318.7" width="24.4" height="24.65" shape-rendering="crispEdges"/><rect fill="#272727" x="207.4" y="318.7" width="561.2" height="24.65" shape-rendering="crispEdges"/><rect fill="#1e1e1e" x="768.6" y="318.7" width="24.4" height="24.65" shape-rendering="crispEdges"/><rect fill="#1e1e1e" x="793" y="318.7" width="12.2" height="24.65" shape-rendering="crispEdges"/><rect fill="#161616" x="805.2" y="318.7" width="146.4" height="24.65" shape-rendering="crispEdges"/><rect fill="#0a0a0a" x="951.6" y="318.7" width="24.4" height="24.65" shape-rendering="crispEdges"/><rect fill="#161616" x="0" y="343.1" width="170.8" height="24.65" shape-rendering="crispEdges"/><rect fill="#1e1e1e" x="170.8" y="343.1" width="12.2" height="24.65" shape-rendering="crispEdges"/><rect fill="#1e1e1e" x="183" y="343.1" width="610" height="24.65" shape-rendering="crispEdges"/><rect fill="#1e1e1e" x="793" y="343.1" width="12.2" height="24.65" shape-rendering="crispEdges"/><rect fill="#161616" x="805.2" y="343.1" width="146.4" height="24.65" shape-rendering="crispEdges"/><rect fill="#0a0a0a" x="951.6" y="343.1" width="24.4" height="24.65" shape-rendering="crispEdges"/><rect fill="#121212" x="0" y="367.5" width="170.8" height="24.65" shape-rendering="crispEdges"/><rect fill="#1e1e1e" x="170.8" y="367.5" width="634.4" height="24.65" shape-rendering="crispEdges"/><rect fill="#161616" x="805.2" y="367.5" width="146.4" height="24.65" shape-rendering="crispEdges"/><rect fill="#0a0a0a" x="951.6" y="367.5" width="24.4" height="24.65" shape-rendering="crispEdges"/><rect fill="#121212" x="0" y="391.9" width="268.4" height="24.65" shape-rendering="crispEdges"/><rect fill="#121212" x="268.4" y="391.9" width="12.2" height="24.65" shape-rendering="crispEdges"/><rect fill="#161616" x="280.6" y="391.9" width="671" height="24.65" shape-rendering="crispEdges"/><rect fill="#0a0a0a" x="951.6" y="391.9" width="24.4" height="24.65" shape-rendering="crispEdges"/><rect fill="#161616" x="0" y="416.3" width="158.6" height="24.65" shape-rendering="crispEdges"/><rect fill="#121212" x="158.6" y="416.3" width="109.8" height="24.65" shape-rendering="crispEdges"/><rect fill="#121212" x="268.4" y="416.3" width="12.2" height="24.65" shape-rendering="crispEdges"/><rect fill="#161616" x="280.6" y="416.3" width="671" height="24.65" shape-rendering="crispEdges"/><rect fill="#0a0a0a" x="951.6" y="416.3" width="24.4" height="24.65" shape-rendering="crispEdges"/><rect fill="#161616" x="0" y="440.7" width="12.2" height="24.65" shape-rendering="crispEdges"/><rect fill="#161616" x="12.2" y="440.7" width="12.2" height="24.65" shape-rendering="crispEdges"/><rect fill="#161616" x="24.4" y="440.7" width="109.8" height="24.65" shape-rendering="crispEdges"/><rect fill="#161616" x="134.2" y="440.7" width="12.2" height="24.65" shape-rendering="crispEdges"/><rect fill="#161616" x="146.4" y="440.7" width="12.2" height="24.65" shape-rendering="crispEdges"/><rect fill="#121212" x="158.6" y="440.7" width="109.8" height="24.65" shape-rendering="crispEdges"/><rect fill="#121212" x="268.4" y="440.7" width="12.2" height="24.65" shape-rendering="crispEdges"/><rect fill="#161616" x="280.6" y="440.7" width="671" height="24.65" shape-rendering="crispEdges"/><rect fill="#0a0a0a" x="951.6" y="440.7" width="24.4" height="24.65" shape-rendering="crispEdges"/><rect fill="#161616" x="0" y="465.1" width="158.6" height="24.65" shape-rendering="crispEdges"/><rect fill="#121212" x="158.6" y="465.1" width="109.8" height="24.65" shape-rendering="crispEdges"/><rect fill="#121212" x="268.4" y="465.1" width="12.2" height="24.65" shape-rendering="crispEdges"/><rect fill="#161616" x="280.6" y="465.1" width="671" height="24.65" shape-rendering="crispEdges"/><rect fill="#0a0a0a" x="951.6" y="465.1" width="24.4" height="24.65" shape-rendering="crispEdges"/><rect fill="#2e2e2e" x="0" y="489.5" width="268.4" height="24.65" shape-rendering="crispEdges"/><rect fill="#121212" x="268.4" y="489.5" width="12.2" height="24.65" shape-rendering="crispEdges"/><rect fill="#161616" x="280.6" y="489.5" width="671" height="24.65" shape-rendering="crispEdges"/><rect fill="#0a0a0a" x="951.6" y="489.5" width="24.4" height="24.65" shape-rendering="crispEdges"/><rect fill="#2e2e2e" x="0" y="513.9" width="12.2" height="24.65" shape-rendering="crispEdges"/><rect fill="#2e2e2e" x="12.2" y="513.9" width="85.4" height="24.65" shape-rendering="crispEdges"/><rect fill="#2e2e2e" x="97.6" y="513.9" width="73.2" height="24.65" shape-rendering="crispEdges"/><rect fill="#2e2e2e" x="170.8" y="513.9" width="85.4" height="24.65" shape-rendering="crispEdges"/><rect fill="#2e2e2e" x="256.2" y="513.9" width="12.2" height="24.65" shape-rendering="crispEdges"/><rect fill="#121212" x="268.4" y="513.9" width="12.2" height="24.65" shape-rendering="crispEdges"/><rect fill="#161616" x="280.6" y="513.9" width="671" height="24.65" shape-rendering="crispEdges"/><rect fill="#0a0a0a" x="951.6" y="513.9" width="24.4" height="24.65" shape-rendering="crispEdges"/><rect fill="#2e2e2e" x="0" y="538.3" width="268.4" height="24.65" shape-rendering="crispEdges"/><rect fill="#121212" x="268.4" y="538.3" width="12.2" height="24.65" shape-rendering="crispEdges"/><rect fill="#161616" x="280.6" y="538.3" width="671" height="24.65" shape-rendering="crispEdges"/><rect fill="#0a0a0a" x="951.6" y="538.3" width="24.4" height="24.65" shape-rendering="crispEdges"/><rect fill="#121212" x="0" y="562.7" width="146.4" height="24.65" shape-rendering="crispEdges"/><rect fill="#121212" x="146.4" y="562.7" width="610" height="24.65" shape-rendering="crispEdges"/><rect fill="#121212" x="756.4" y="562.7" width="219.6" height="24.65" shape-rendering="crispEdges"/>
    <g class="terminal-2467946649-matrix">
    <text class="terminal-2467946649-r1" x="0" y="20" textLength="97.6" clip-path="url(#terminal-2467946649-line-0)">╭──────╮</text><text class="terminal-2467946649-r2" x="341.6" y="20" textLength="12.2" clip-path="url(#terminal-2467946649-line-0)">T</text><text class="terminal-2467946649-r2" x="353.8" y="20" textLength="12.2" clip-path="url(#terminal-2467946649-line-0)">e</text><text class="terminal-2467946649-r2" x="366" y="20" textLength="12.2" clip-path="url(#terminal-2467946649-line-0)">x</text><text class="terminal-2467946649-r2" x="378.2" y="20" textLength="12.2" clip-path="url(#terminal-2467946649-line-0)">t</text><text class="terminal-2467946649-r2" x="390.4" y="20" textLength="12.2" clip-path="url(#terminal-2467946649-line-0)">U</text><text class="terminal-2467946649-r2" x="402.6" y="20" textLength="12.2" clip-path="url(#terminal-2467946649-line-0)">I</text><text class="terminal-2467946649-r2" x="427" y="20" textLength="12.2" clip-path="url(#terminal-2467946649-line-0)">f</text><text class="terminal-2467946649-r2" x="439.2" y="20" textLength="12.2" clip-path="url(#terminal-2467946649-line-0)">e</text><text class="terminal-2467946649-r2" x="451.4" y="20" textLength="12.2" clip-path="url(#terminal-2467946649-line-0)">a</text><text class="terminal-2467946649-r2" x="463.6" y="20" textLength="12.2" clip-path="url(#terminal-2467946649-line-0)">t</text><text class="terminal-2467946649-r2" x="475.8" y="20" textLength="12.2" clip-path="url(#terminal-2467946649-line-0)">u</text><text class="terminal-2467946649-r2" x="488" y="20" textLength="12.2" clip-path="url(#terminal-2467946649-line-0)">r</text><text class="terminal-2467946649-r2" x="500.2" y="20" textLength="12.2" clip-path="url(#terminal-2467946649-line-0)">e</text><text class="terminal-2467946649-r2" x="524.6" y="20" textLength="12.2" clip-path="url(#terminal-2467946649-line-0)">s</text><text class="terminal-2467946649-r2" x="536.8" y="20" textLength="12.2" clip-path="url(#terminal-2467946649-line-0)">h</text><text class="terminal-2467946649-r2" x="549" y="20" textLength="12.2" clip-path="url(#terminal-2467946649-line-0)">o</text><text class="terminal-2467946649-r2" x="561.2" y="20" textLength="12.2" clip-path="url(#terminal-2467946649-line-0)">w</text><text class="terminal-2467946649-r2" x="573.4" y="20" textLength="12.2" clip-path="url(#terminal-2467946649-line-0)">c</text><text class="terminal-2467946649-r2" x="585.6" y="20" textLength="12.2" clip-path="url(#terminal-2467946649-line-0)">a</text><text class="terminal-2467946649-r2" x="597.8" y="20" textLength="12.2" clip-path="url(#terminal-2467946649-line-0)">s</text><text class="terminal-2467946649-r2" x="610" y="20" textLength="12.2" clip-path="url(#terminal-2467946649-line-0)">e</text><text class="terminal-2467946649-r2" x="622.2" y="20" textLength="12.2" clip-path="url(#terminal-2467946649-line-0)">1</text><text class="terminal-2467946649-r2" x="634.4" y="20" textLength="12.2" clip-path="url(#terminal-2467946649-line-0)">2</text><text class="terminal-2467946649-r2" x="646.6" y="20" textLength="12.2" clip-path="url(#terminal-2467946649-line-0)">:</text><text class="terminal-2467946649-r2" x="658.8" y="20" textLength="12.2" clip-path="url(#terminal-2467946649-line-0)">3</text><text class="terminal-2467946649-r2" x="671" y="20" textLength="12.2" clip-path="url(#terminal-2467946649-line-0)">4</text><text class="terminal-2467946649-r2" x="683.2" y="20" textLength="12.2" clip-path="url(#terminal-2467946649-line-0)">:</text><text class="terminal-2467946649-r2" x="695.4" y="20" textLength="12.2" clip-path="url(#terminal-2467946649-line-0)">5</text><text class="terminal-2467946649-r2" x="707.6" y="20" textLength="12.2" clip-path="url(#terminal-2467946649-line-0)">6</text><text class="terminal-2467946649-r1" x="719.8" y="20" textLength="158.6" clip-path="url(#terminal-2467946649-line-0)">╭───────────╮</text><text class="terminal-2467946649-r3" x="878.4" y="20" textLength="97.6" clip-path="url(#terminal-2467946649-line-0)">┌───────</text><text class="terminal-2467946649-r4" x="976" y="20" textLength="12.2" clip-path="url(#terminal-2467946649-line-0)">
</text><text class="terminal-2467946649-r1" x="0" y="44.4" textLength="12.2" clip-path="url(#terminal-2467946649-line-1)">│</text><text class="terminal-2467946649-r6" x="24.4" y="44.4" textLength="36.6" clip-path="url(#terminal-2467946649-line-1)">&#160;☰&#160;</text><text class="terminal-2467946649-r1" x="85.4" y="44.4" textLength="12.2" clip-path="url(#terminal-2467946649-line-1)">│</text><text class="terminal-2467946649-r1" x="719.8" y="44.4" textLength="12.2" clip-path="url(#terminal-2467946649-line-1)">│</text><text class="terminal-2467946649-r6" x="744.2" y="44.4" textLength="109.8" clip-path="url(#terminal-2467946649-line-1)">&#160;Compact&#160;</text><text class="terminal-2467946649-r1" x="866.2" y="44.4" textLength="12.2" clip-path="url(#terminal-2467946649-line-1)">│</text><text class="terminal-2467946649-r3" x="878.4" y="44.4" textLength="12.2" clip-path="url(#terminal-2467946649-line-1)">│</text><text class="terminal-2467946649-r7" x="902.8" y="44.4" textLength="73.2" clip-path="url(#terminal-2467946649-line-1)">&#160;Help&#160;</text><text class="terminal-2467946649-r4" x="976" y="44.4" textLength="12.2" clip-path="url(#terminal-2467946649-line-1)">
</text><text class="terminal-2467946649-r1" x="0" y="68.8" textLength="97.6" clip-path="url(#terminal-2467946649-line-2)">╰──────╯</text><text class="terminal-2467946649-r1" x="719.8" y="68.8" textLength="158.6" clip-path="url(#terminal-2467946649-line-2)">╰───────────╯</text><text class="terminal-2467946649-r3" x="878.4" y="68.8" textLength="97.6" clip-path="url(#terminal-2467946649-line-2)">└───────</text><text class="terminal-2467946649-r4" x="976" y="68.8" textLength="12.2" clip-path="url(#terminal-2467946649-line-2)">
</text><text class="terminal-2467946649-r1" x="0" y="93.2" textLength="268.4" clip-path="url(#terminal-2467946649-line-3)">╭────────────────────╮</text><text class="terminal-2467946649-r8" x="268.4" y="93.2" textLength="12.2" clip-path="url(#terminal-2467946649-line-3)">│</text><text class="terminal-2467946649-r8" x="280.6" y="93.2" textLength="61" clip-path="url(#terminal-2467946649-line-3)">Alpha</text><text class="terminal-2467946649-r4" x="976" y="93.2" textLength="12.2" clip-path="url(#terminal-2467946649-line-3)">
</text><text class="terminal-2467946649-r1" x="0" y="117.6" textLength="12.2" clip-path="url(#terminal-2467946649-line-4)">│</text><text class="terminal-2467946649-r6" x="73.2" y="117.6" textLength="122" clip-path="url(#terminal-2467946649-line-4)">&#160;Overview&#160;</text><text class="terminal-2467946649-r1" x="256.2" y="117.6" textLength="12.2" clip-path="url(#terminal-2467946649-line-4)">│</text><text class="terminal-2467946649-r8" x="280.6" y="117.6" textLength="61" clip-path="url(#terminal-2467946649-line-4)">Bravo</text><text class="terminal-2467946649-r4" x="976" y="117.6" textLength="12.2" clip-path="url(#terminal-2467946649-line-4)">
</text><text class="terminal-2467946649-r1" x="0" y="142" textLength="268.4" clip-path="url(#terminal-2467946649-line-5)">╰────────────────────╯</text><text class="terminal-2467946649-r4" x="976" y="142" textLength="12.2" clip-path="url(#terminal-2467946649-line-5)">
</text><text class="terminal-2467946649-r1" x="0" y="166.4" textLength="268.4" clip-path="url(#terminal-2467946649-line-6)">╭────────────────────╮</text><text class="terminal-2467946649-r4" x="976" y="166.4" textLength="12.2" clip-path="url(#terminal-2467946649-line-6)">
</text><text class="terminal-2467946649-r1" x="0" y="190.8" textLength="12.2" clip-path="url(#terminal-2467946649-line-7)">│</text><text class="terminal-2467946649-r6" x="73.2" y="190.8" textLength="122" clip-path="url(#terminal-2467946649-line-7)">&#160;Controls&#160;</text><text class="terminal-2467946649-r1" x="256.2" y="190.8" textLength="12.2" clip-path="url(#terminal-2467946649-line-7)">│</text><text class="terminal-2467946649-r8" x="268.4" y="190.8" textLength="195.2" clip-path="url(#terminal-2467946649-line-7)">&#160;Select&#160;an&#160;agent</text><text class="terminal-2467946649-r4" x="976" y="190.8" textLength="12.2" clip-path="url(#terminal-2467946649-line-7)">
</text><text class="terminal-2467946649-r1" x="0" y="215.2" textLength="170.8" clip-path="url(#terminal-2467946649-line-8)">╰─────────────</text><text class="terminal-2467946649-r9" x="170.8" y="215.2" textLength="634.4" clip-path="url(#terminal-2467946649-line-8)">╭──────────────────────────────────────────────────╮</text><text class="terminal-2467946649-r4" x="976" y="215.2" textLength="12.2" clip-path="url(#terminal-2467946649-line-8)">
</text><text class="terminal-2467946649-r1" x="0" y="239.6" textLength="170.8" clip-path="url(#terminal-2467946649-line-9)">╭─────────────</text><text class="terminal-2467946649-r9" x="170.8" y="239.6" textLength="12.2" clip-path="url(#terminal-2467946649-line-9)">│</text><text class="terminal-2467946649-r9" x="793" y="239.6" textLength="12.2" clip-path="url(#terminal-2467946649-line-9)">│</text><text class="terminal-2467946649-r4" x="976" y="239.6" textLength="12.2" clip-path="url(#terminal-2467946649-line-9)">
</text><text class="terminal-2467946649-r1" x="0" y="264" textLength="12.2" clip-path="url(#terminal-2467946649-line-10)">│</text><text class="terminal-2467946649-r6" x="97.6" y="264" textLength="73.2" clip-path="url(#terminal-2467946649-line-10)">&#160;Data&#160;</text><text class="terminal-2467946649-r9" x="170.8" y="264" textLength="12.2" clip-path="url(#terminal-2467946649-line-10)">│</text><text class="terminal-2467946649-r5" x="207.4" y="264" textLength="561.2" clip-path="url(#terminal-2467946649-line-10)">TextUI&#160;uses&#160;native&#160;Textual&#160;screens&#160;for&#160;modals.</text><text class="terminal-2467946649-r9" x="793" y="264" textLength="12.2" clip-path="url(#terminal-2467946649-line-10)">│</text><text class="terminal-2467946649-r4" x="976" y="264" textLength="12.2" clip-path="url(#terminal-2467946649-line-10)">
</text><text class="terminal-2467946649-r1" x="0" y="288.4" textLength="170.8" clip-path="url(#terminal-2467946649-line-11)">╰─────────────</text><text class="terminal-2467946649-r9" x="170.8" y="288.4" textLength="12.2" clip-path="url(#terminal-2467946649-line-11)">│</text><text class="terminal-2467946649-r10" x="207.4" y="288.4" textLength="561.2" clip-path="url(#terminal-2467946649-line-11)">┌────────────────────────────────────────────┐</text><text class="terminal-2467946649-r9" x="793" y="288.4" textLength="12.2" clip-path="url(#terminal-2467946649-line-11)">│</text><text class="terminal-2467946649-r4" x="976" y="288.4" textLength="12.2" clip-path="url(#terminal-2467946649-line-11)">
</text><text class="terminal-2467946649-r1" x="0" y="312.8" textLength="170.8" clip-path="url(#terminal-2467946649-line-12)">╭─────────────</text><text class="terminal-2467946649-r9" x="170.8" y="312.8" textLength="12.2" clip-path="url(#terminal-2467946649-line-12)">│</text><text class="terminal-2467946649-r10" x="207.4" y="312.8" textLength="12.2" clip-path="url(#terminal-2467946649-line-12)">│</text><text class="terminal-2467946649-r11" x="439.2" y="312.8" textLength="85.4" clip-path="url(#terminal-2467946649-line-12)">&#160;Close&#160;</text><text class="terminal-2467946649-r10" x="756.4" y="312.8" textLength="12.2" clip-path="url(#terminal-2467946649-line-12)">│</text><text class="terminal-2467946649-r9" x="793" y="312.8" textLength="12.2" clip-path="url(#terminal-2467946649-line-12)">│</text><text class="terminal-2467946649-r4" x="976" y="312.8" textLength="12.2" clip-path="url(#terminal-2467946649-line-12)">
</text><text class="terminal-2467946649-r1" x="0" y="337.2" textLength="12.2" clip-path="url(#terminal-2467946649-line-13)">│</text><text class="terminal-2467946649-r6" x="73.2" y="337.2" textLength="97.6" clip-path="url(#terminal-2467946649-line-13)">&#160;Activit</text><text class="terminal-2467946649-r9" x="170.8" y="337.2" textLength="12.2" clip-path="url(#terminal-2467946649-line-13)">│</text><text class="terminal-2467946649-r10" x="207.4" y="337.2" textLength="561.2" clip-path="url(#terminal-2467946649-line-13)">└────────────────────────────────────────────┘</text><text class="terminal-2467946649-r9" x="793" y="337.2" textLength="12.2" clip-path="url(#terminal-2467946649-line-13)">│</text><text class="terminal-2467946649-r4" x="976" y="337.2" textLength="12.2" clip-path="url(#terminal-2467946649-line-13)">
</text><text class="terminal-2467946649-r1" x="0" y="361.6" textLength="170.8" clip-path="url(#terminal-2467946649-line-14)">╰─────────────</text><text class="terminal-2467946649-r9" x="170.8" y="361.6" textLength="12.2" clip-path="url(#terminal-2467946649-line-14)">│</text><text class="terminal-2467946649-r9" x="793" y="361.6" textLength="12.2" clip-path="url(#terminal-2467946649-line-14)">│</text><text class="terminal-2467946649-r4" x="976" y="361.6" textLength="12.2" clip-path="url(#terminal-2467946649-line-14)">
</text><text class="terminal-2467946649-r9" x="170.8" y="386" textLength="634.4" clip-path="url(#terminal-2467946649-line-15)">╰──────────────────────────────────────────────────╯</text><text class="terminal-2467946649-r4" x="976" y="386" textLength="12.2" clip-path="url(#terminal-2467946649-line-15)">
</text><text class="terminal-2467946649-r4" x="976" y="410.4" textLength="12.2" clip-path="url(#terminal-2467946649-line-16)">
</text><text class="terminal-2467946649-r1" x="0" y="434.8" textLength="158.6" clip-path="url(#terminal-2467946649-line-17)">╭───────────╮</text><text class="terminal-2467946649-r4" x="976" y="434.8" textLength="12.2" clip-path="url(#terminal-2467946649-line-17)">
</text><text class="terminal-2467946649-r1" x="0" y="459.2" textLength="12.2" clip-path="url(#terminal-2467946649-line-18)">│</text><text class="terminal-2467946649-r6" x="24.4" y="459.2" textLength="109.8" clip-path="url(#terminal-2467946649-line-18)">&#160;Borders&#160;</text><text class="terminal-2467946649-r1" x="146.4" y="459.2" textLength="12.2" clip-path="url(#terminal-2467946649-line-18)">│</text><text class="terminal-2467946649-r4" x="976" y="459.2" textLength="12.2" clip-path="url(#terminal-2467946649-line-18)">
</text><text class="terminal-2467946649-r1" x="0" y="483.6" textLength="158.6" clip-path="url(#terminal-2467946649-line-19)">╰───────────╯</text><text class="terminal-2467946649-r4" x="976" y="483.6" textLength="12.2" clip-path="url(#terminal-2467946649-line-19)">
</text><text class="terminal-2467946649-r1" x="0" y="508" textLength="268.4" clip-path="url(#terminal-2467946649-line-20)">╭────────────────────╮</text><text class="terminal-2467946649-r4" x="976" y="508" textLength="12.2" clip-path="url(#terminal-2467946649-line-20)">
</text><text class="terminal-2467946649-r1" x="0" y="532.4" textLength="12.2" clip-path="url(#terminal-2467946649-line-21)">│</text><text class="terminal-2467946649-r12" x="97.6" y="532.4" textLength="73.2" clip-path="url(#terminal-2467946649-line-21)">&#160;Quit&#160;</text><text class="terminal-2467946649-r1" x="256.2" y="532.4" textLength="12.2" clip-path="url(#terminal-2467946649-line-21)">│</text><text class="terminal-2467946649-r4" x="976" y="532.4" textLength="12.2" clip-path="url(#terminal-2467946649-line-21)">
</text><text class="terminal-2467946649-r1" x="0" y="556.8" textLength="268.4" clip-path="url(#terminal-2467946649-line-22)">╰────────────────────╯</text><text class="terminal-2467946649-r4" x="976" y="556.8" textLength="12.2" clip-path="url(#terminal-2467946649-line-22)">
</text><text class="terminal-2467946649-r8" x="0" y="581.2" textLength="146.4" clip-path="url(#terminal-2467946649-line-23)">Tab:&#160;choices</text><text class="terminal-2467946649-r8" x="756.4" y="581.2" textLength="219.6" clip-path="url(#terminal-2467946649-line-23)">1&#160;/&#160;2&#160;selects&#160;tabs</text>
    </g>
    </g>
</svg>
